# xmcd CD database file
#
# Track frame offsets:
#	150
#	51345
#	94218
#	115773
#	166146
#	224913
#	252309
#	286013
#
# Disc length: 4085 seconds
#
# Revision: 0
# Processed by: cddbd v1.5.2PL0 Copyright (c) Steve Scherf et al.
# Submitted via: CDex 1.70beta2
#
DISCID=740ff308
DTITLE=Timo Lassy - Live with Lassy
DYEAR=2014
DGENRE=Jazz
TTITLE0=Shooting' Dice
TTITLE1=Touch Red
TTITLE2=The Good Life
TTITLE3=Just One of Those Things
TTITLE4=Where's The Man?
TTITLE5=It Could Be Better
TTITLE6=Uncle Harry Came to Town
TTITLE7=Sweet Spot
EXTD=YEAR: 2014
EXTT0=
EXTT1=
EXTT2=
EXTT3=
EXTT4=
EXTT5=
EXTT6=
EXTT7=
PLAYORDER=
